<mxfile host="app.diagrams.net" modified="2021-10-19T16:14:54.804Z" agent="5.0 (X11)" etag="LQ62ehJxxBDFFCS-VwbH" version="15.5.2" type="github">
  <diagram id="Q-W_vvelxExXVuwfkpPa" name="Page-1">
    <mxGraphModel dx="796" dy="481" grid="1" gridSize="10" guides="1" tooltips="1" connect="1" arrows="1" fold="1" page="1" pageScale="1" pageWidth="827" pageHeight="1169" math="0" shadow="0">
      <root>
        <mxCell id="0" />
        <mxCell id="1" parent="0" />
        <mxCell id="D09nHzNTPnsE43kBFfQT-40" style="edgeStyle=none;rounded=0;orthogonalLoop=1;jettySize=auto;html=1;exitX=0.5;exitY=0;exitDx=0;exitDy=0;entryX=0.5;entryY=1;entryDx=0;entryDy=0;endArrow=none;endFill=0;" edge="1" parent="1" source="D09nHzNTPnsE43kBFfQT-1" target="D09nHzNTPnsE43kBFfQT-30">
          <mxGeometry relative="1" as="geometry" />
        </mxCell>
        <mxCell id="D09nHzNTPnsE43kBFfQT-41" style="edgeStyle=none;rounded=0;orthogonalLoop=1;jettySize=auto;html=1;exitX=0.25;exitY=0;exitDx=0;exitDy=0;entryX=0.5;entryY=1;entryDx=0;entryDy=0;endArrow=none;endFill=0;" edge="1" parent="1" source="D09nHzNTPnsE43kBFfQT-1" target="D09nHzNTPnsE43kBFfQT-29">
          <mxGeometry relative="1" as="geometry" />
        </mxCell>
        <mxCell id="D09nHzNTPnsE43kBFfQT-42" style="edgeStyle=none;rounded=0;orthogonalLoop=1;jettySize=auto;html=1;exitX=0.75;exitY=0;exitDx=0;exitDy=0;entryX=0.5;entryY=1;entryDx=0;entryDy=0;endArrow=none;endFill=0;" edge="1" parent="1" source="D09nHzNTPnsE43kBFfQT-1" target="D09nHzNTPnsE43kBFfQT-32">
          <mxGeometry relative="1" as="geometry" />
        </mxCell>
        <mxCell id="D09nHzNTPnsE43kBFfQT-1" value="JUGADOR" style="rounded=0;whiteSpace=wrap;html=1;" vertex="1" parent="1">
          <mxGeometry x="520" y="150" width="120" height="60" as="geometry" />
        </mxCell>
        <mxCell id="D09nHzNTPnsE43kBFfQT-2" value="EQUIP" style="rounded=0;whiteSpace=wrap;html=1;" vertex="1" parent="1">
          <mxGeometry x="200" y="150" width="120" height="60" as="geometry" />
        </mxCell>
        <mxCell id="D09nHzNTPnsE43kBFfQT-3" value="TEMPORADA" style="rounded=0;whiteSpace=wrap;html=1;" vertex="1" parent="1">
          <mxGeometry x="360" y="390" width="120" height="60" as="geometry" />
        </mxCell>
        <mxCell id="D09nHzNTPnsE43kBFfQT-6" style="edgeStyle=orthogonalEdgeStyle;rounded=0;orthogonalLoop=1;jettySize=auto;html=1;exitX=0.5;exitY=1;exitDx=0;exitDy=0;entryX=0;entryY=0.5;entryDx=0;entryDy=0;" edge="1" parent="1" source="D09nHzNTPnsE43kBFfQT-4" target="D09nHzNTPnsE43kBFfQT-2">
          <mxGeometry relative="1" as="geometry" />
        </mxCell>
        <mxCell id="D09nHzNTPnsE43kBFfQT-8" style="edgeStyle=orthogonalEdgeStyle;rounded=0;orthogonalLoop=1;jettySize=auto;html=1;exitX=1;exitY=0.5;exitDx=0;exitDy=0;entryX=0.5;entryY=0;entryDx=0;entryDy=0;" edge="1" parent="1" source="D09nHzNTPnsE43kBFfQT-4" target="D09nHzNTPnsE43kBFfQT-2">
          <mxGeometry relative="1" as="geometry" />
        </mxCell>
        <mxCell id="D09nHzNTPnsE43kBFfQT-4" value="Juga_Partit" style="rhombus;whiteSpace=wrap;html=1;" vertex="1" parent="1">
          <mxGeometry x="80" y="50" width="80" height="60" as="geometry" />
        </mxCell>
        <mxCell id="D09nHzNTPnsE43kBFfQT-10" style="rounded=0;orthogonalLoop=1;jettySize=auto;html=1;exitX=1;exitY=1;exitDx=0;exitDy=0;entryX=0;entryY=0;entryDx=0;entryDy=0;endArrow=none;endFill=0;" edge="1" parent="1" source="D09nHzNTPnsE43kBFfQT-9" target="D09nHzNTPnsE43kBFfQT-4">
          <mxGeometry relative="1" as="geometry" />
        </mxCell>
        <mxCell id="D09nHzNTPnsE43kBFfQT-9" value="gols" style="ellipse;whiteSpace=wrap;html=1;" vertex="1" parent="1">
          <mxGeometry x="40" y="20" width="40" height="30" as="geometry" />
        </mxCell>
        <mxCell id="D09nHzNTPnsE43kBFfQT-15" style="edgeStyle=none;rounded=0;orthogonalLoop=1;jettySize=auto;html=1;exitX=1;exitY=0;exitDx=0;exitDy=0;entryX=0;entryY=1;entryDx=0;entryDy=0;endArrow=doubleBlock;endFill=1;" edge="1" parent="1" source="D09nHzNTPnsE43kBFfQT-11" target="D09nHzNTPnsE43kBFfQT-1">
          <mxGeometry relative="1" as="geometry" />
        </mxCell>
        <mxCell id="D09nHzNTPnsE43kBFfQT-16" style="edgeStyle=none;rounded=0;orthogonalLoop=1;jettySize=auto;html=1;exitX=0;exitY=0;exitDx=0;exitDy=0;entryX=1;entryY=1;entryDx=0;entryDy=0;endArrow=doubleBlock;endFill=1;" edge="1" parent="1" source="D09nHzNTPnsE43kBFfQT-11" target="D09nHzNTPnsE43kBFfQT-2">
          <mxGeometry relative="1" as="geometry" />
        </mxCell>
        <mxCell id="D09nHzNTPnsE43kBFfQT-17" style="edgeStyle=none;rounded=0;orthogonalLoop=1;jettySize=auto;html=1;exitX=0.5;exitY=1;exitDx=0;exitDy=0;endArrow=doubleBlock;endFill=1;" edge="1" parent="1" source="D09nHzNTPnsE43kBFfQT-11" target="D09nHzNTPnsE43kBFfQT-3">
          <mxGeometry relative="1" as="geometry" />
        </mxCell>
        <mxCell id="D09nHzNTPnsE43kBFfQT-11" value="Pertany" style="rhombus;whiteSpace=wrap;html=1;" vertex="1" parent="1">
          <mxGeometry x="380" y="250" width="80" height="60" as="geometry" />
        </mxCell>
        <mxCell id="D09nHzNTPnsE43kBFfQT-25" style="edgeStyle=none;rounded=0;orthogonalLoop=1;jettySize=auto;html=1;exitX=0.5;exitY=1;exitDx=0;exitDy=0;entryX=0.5;entryY=0;entryDx=0;entryDy=0;endArrow=none;endFill=0;" edge="1" parent="1" source="D09nHzNTPnsE43kBFfQT-20" target="D09nHzNTPnsE43kBFfQT-11">
          <mxGeometry relative="1" as="geometry" />
        </mxCell>
        <mxCell id="D09nHzNTPnsE43kBFfQT-20" value="gols" style="ellipse;whiteSpace=wrap;html=1;" vertex="1" parent="1">
          <mxGeometry x="390" y="170" width="40" height="30" as="geometry" />
        </mxCell>
        <mxCell id="D09nHzNTPnsE43kBFfQT-24" style="edgeStyle=none;rounded=0;orthogonalLoop=1;jettySize=auto;html=1;exitX=0.5;exitY=1;exitDx=0;exitDy=0;entryX=0.413;entryY=0.1;entryDx=0;entryDy=0;entryPerimeter=0;endArrow=none;endFill=0;" edge="1" parent="1" source="D09nHzNTPnsE43kBFfQT-22" target="D09nHzNTPnsE43kBFfQT-11">
          <mxGeometry relative="1" as="geometry" />
        </mxCell>
        <mxCell id="D09nHzNTPnsE43kBFfQT-22" value="salari" style="ellipse;whiteSpace=wrap;html=1;" vertex="1" parent="1">
          <mxGeometry x="350" y="170" width="40" height="30" as="geometry" />
        </mxCell>
        <mxCell id="D09nHzNTPnsE43kBFfQT-27" style="edgeStyle=none;rounded=0;orthogonalLoop=1;jettySize=auto;html=1;exitX=0.5;exitY=1;exitDx=0;exitDy=0;entryX=0.625;entryY=0.117;entryDx=0;entryDy=0;entryPerimeter=0;endArrow=none;endFill=0;" edge="1" parent="1" source="D09nHzNTPnsE43kBFfQT-26" target="D09nHzNTPnsE43kBFfQT-11">
          <mxGeometry relative="1" as="geometry" />
        </mxCell>
        <mxCell id="D09nHzNTPnsE43kBFfQT-26" value="&lt;div&gt;min_jugats&lt;/div&gt;" style="ellipse;whiteSpace=wrap;html=1;" vertex="1" parent="1">
          <mxGeometry x="430" y="170" width="70" height="30" as="geometry" />
        </mxCell>
        <mxCell id="D09nHzNTPnsE43kBFfQT-29" value="nom" style="ellipse;whiteSpace=wrap;html=1;" vertex="1" parent="1">
          <mxGeometry x="520" y="90" width="40" height="30" as="geometry" />
        </mxCell>
        <mxCell id="D09nHzNTPnsE43kBFfQT-30" value="cognom" style="ellipse;whiteSpace=wrap;html=1;" vertex="1" parent="1">
          <mxGeometry x="560" y="90" width="40" height="30" as="geometry" />
        </mxCell>
        <mxCell id="D09nHzNTPnsE43kBFfQT-32" value="dni" style="ellipse;whiteSpace=wrap;html=1;fontStyle=4" vertex="1" parent="1">
          <mxGeometry x="600" y="90" width="40" height="30" as="geometry" />
        </mxCell>
        <mxCell id="D09nHzNTPnsE43kBFfQT-39" style="edgeStyle=none;rounded=0;orthogonalLoop=1;jettySize=auto;html=1;exitX=0.5;exitY=0;exitDx=0;exitDy=0;entryX=0.75;entryY=1;entryDx=0;entryDy=0;endArrow=none;endFill=0;" edge="1" parent="1" source="D09nHzNTPnsE43kBFfQT-33" target="D09nHzNTPnsE43kBFfQT-2">
          <mxGeometry relative="1" as="geometry" />
        </mxCell>
        <mxCell id="D09nHzNTPnsE43kBFfQT-33" value="localitat" style="ellipse;whiteSpace=wrap;html=1;" vertex="1" parent="1">
          <mxGeometry x="280" y="240" width="60" height="30" as="geometry" />
        </mxCell>
        <mxCell id="D09nHzNTPnsE43kBFfQT-38" style="edgeStyle=none;rounded=0;orthogonalLoop=1;jettySize=auto;html=1;exitX=0.5;exitY=0;exitDx=0;exitDy=0;entryX=0.5;entryY=1;entryDx=0;entryDy=0;endArrow=none;endFill=0;" edge="1" parent="1" source="D09nHzNTPnsE43kBFfQT-34" target="D09nHzNTPnsE43kBFfQT-2">
          <mxGeometry relative="1" as="geometry" />
        </mxCell>
        <mxCell id="D09nHzNTPnsE43kBFfQT-34" value="any_fundaciÃ³" style="ellipse;whiteSpace=wrap;html=1;" vertex="1" parent="1">
          <mxGeometry x="200" y="240" width="80" height="30" as="geometry" />
        </mxCell>
        <mxCell id="D09nHzNTPnsE43kBFfQT-37" style="edgeStyle=none;rounded=0;orthogonalLoop=1;jettySize=auto;html=1;exitX=0.5;exitY=0;exitDx=0;exitDy=0;entryX=0.25;entryY=1;entryDx=0;entryDy=0;endArrow=none;endFill=0;" edge="1" parent="1" source="D09nHzNTPnsE43kBFfQT-35" target="D09nHzNTPnsE43kBFfQT-2">
          <mxGeometry relative="1" as="geometry" />
        </mxCell>
        <mxCell id="D09nHzNTPnsE43kBFfQT-35" value="nom_equip" style="ellipse;whiteSpace=wrap;html=1;fontStyle=4" vertex="1" parent="1">
          <mxGeometry x="130" y="240" width="70" height="30" as="geometry" />
        </mxCell>
        <mxCell id="D09nHzNTPnsE43kBFfQT-47" style="edgeStyle=none;rounded=0;orthogonalLoop=1;jettySize=auto;html=1;exitX=0.5;exitY=0;exitDx=0;exitDy=0;entryX=0.75;entryY=1;entryDx=0;entryDy=0;endArrow=none;endFill=0;" edge="1" parent="1" source="D09nHzNTPnsE43kBFfQT-43" target="D09nHzNTPnsE43kBFfQT-3">
          <mxGeometry relative="1" as="geometry" />
        </mxCell>
        <mxCell id="D09nHzNTPnsE43kBFfQT-43" value="events" style="ellipse;whiteSpace=wrap;html=1;" vertex="1" parent="1">
          <mxGeometry x="455" y="480" width="40" height="30" as="geometry" />
        </mxCell>
        <mxCell id="D09nHzNTPnsE43kBFfQT-49" style="edgeStyle=none;rounded=0;orthogonalLoop=1;jettySize=auto;html=1;exitX=0.5;exitY=0;exitDx=0;exitDy=0;entryX=0.5;entryY=1;entryDx=0;entryDy=0;endArrow=none;endFill=0;" edge="1" parent="1" source="D09nHzNTPnsE43kBFfQT-44" target="D09nHzNTPnsE43kBFfQT-3">
          <mxGeometry relative="1" as="geometry" />
        </mxCell>
        <mxCell id="D09nHzNTPnsE43kBFfQT-44" value="data_final" style="ellipse;whiteSpace=wrap;html=1;" vertex="1" parent="1">
          <mxGeometry x="385" y="480" width="70" height="30" as="geometry" />
        </mxCell>
        <mxCell id="D09nHzNTPnsE43kBFfQT-48" style="edgeStyle=none;rounded=0;orthogonalLoop=1;jettySize=auto;html=1;exitX=0.5;exitY=0;exitDx=0;exitDy=0;entryX=0.25;entryY=1;entryDx=0;entryDy=0;endArrow=none;endFill=0;" edge="1" parent="1" source="D09nHzNTPnsE43kBFfQT-45" target="D09nHzNTPnsE43kBFfQT-3">
          <mxGeometry relative="1" as="geometry" />
        </mxCell>
        <mxCell id="D09nHzNTPnsE43kBFfQT-45" value="any" style="ellipse;whiteSpace=wrap;html=1;fontStyle=4" vertex="1" parent="1">
          <mxGeometry x="345" y="480" width="40" height="30" as="geometry" />
        </mxCell>
      </root>
    </mxGraphModel>
  </diagram>
</mxfile>
